# Blender 4.1.1
# www.blender.org
mtllib Player.mtl
o Cube
v 0.800140 0.792005 -0.836209
v 0.801556 -0.801143 -0.837370
v 1.004252 0.793774 1.000004
v 1.004377 -0.795512 1.000004
v -0.797146 0.788948 -0.833756
v -0.798910 -0.798440 -0.835201
v -1.004252 0.793774 1.000004
v -1.004377 -0.795512 1.000004
v 0.000000 -1.003845 -1.000000
v 0.000000 0.793774 1.000004
v 0.000000 -0.795512 1.000004
v 0.000000 0.996155 -1.000000
v -0.908777 -0.894154 0.012787
v 0.916619 0.896310 0.011627
v -0.908145 0.886204 0.012968
v 0.913824 -0.900187 0.011948
v 0.000000 -1.003845 0.000000
v 0.000000 0.996155 0.000000
v 0.000000 0.996155 -1.000000
v 0.891349 -0.003974 -1.027378
v -0.906562 -0.003199 0.891469
v 0.907867 -0.003206 0.892708
v -0.901075 -0.003993 -1.040381
v 0.000000 -0.003845 -1.197690
v 0.000000 -0.003845 1.000017
v 1.021009 -0.003845 0.000000
v -1.021009 -0.003845 0.000000
vn -0.0558 0.9880 0.1439
vn -0.0566 -0.0712 0.9959
vn -0.9815 0.1431 -0.1275
vn 0.0524 -0.9868 0.1530
vn 0.9999 0.0038 0.0138
vn 0.2143 0.2171 -0.9523
vn -0.2089 0.2266 -0.9513
vn -0.0556 -0.9871 0.1498
vn 0.0559 -0.0704 0.9960
vn 0.0504 0.9875 0.1492
vn 0.1806 0.9813 -0.0668
vn -0.1873 -0.9803 -0.0619
vn 0.9822 0.1295 -0.1361
vn 0.1817 -0.9813 -0.0636
vn -0.9999 0.0083 0.0102
vn -0.1889 0.9800 -0.0630
vn -0.9999 -0.0078 0.0104
vn 0.9825 -0.1302 -0.1335
vn 0.0559 0.0709 0.9959
vn -0.2076 -0.2255 -0.9519
vn 0.2133 -0.2162 -0.9528
vn 0.9999 -0.0055 0.0123
vn -0.9818 -0.1413 -0.1266
vn -0.0565 0.0717 0.9958
vt 0.750000 0.625000
vt 0.875000 0.625000
vt 0.875531 0.750000
vt 0.750000 0.750000
vt 0.500000 0.875000
vt 0.599702 0.875000
vt 0.599702 1.000000
vt 0.500000 1.000000
vt 0.500000 0.125000
vt 0.625000 0.125000
vt 0.625000 0.250000
vt 0.500000 0.250000
vt 0.250000 0.625000
vt 0.375000 0.625000
vt 0.401042 0.750000
vt 0.250000 0.750000
vt 0.500000 0.625000
vt 0.625000 0.625000
vt 0.599702 0.750000
vt 0.500000 0.750000
vt 0.500000 0.375000
vt 0.625000 0.375000
vt 0.625000 0.500000
vt 0.500000 0.500000
vt 0.125000 0.625000
vt 0.124453 0.750000
vt 0.750000 0.500000
vt 0.125000 0.500000
vt 0.250000 0.500000
vt 0.375000 0.500000
vt 0.500000 0.000000
vt 0.599702 0.000000
vt 0.875000 0.500000
vt 0.401042 0.000000
vt 0.375000 0.125000
vt 0.401042 0.875000
vt 0.375000 0.250000
vt 0.375000 0.375000
vt 0.401042 1.000000
s 0
usemtl Material
f 18/1/1 15/2/1 7/3/1 10/4/1
f 25/5/2 10/6/2 7/7/2 21/8/2
f 27/9/3 15/10/3 5/11/3 23/12/3
f 17/13/4 16/14/4 4/15/4 11/16/4
f 26/17/5 14/18/5 3/19/5 22/20/5
f 24/21/6 12/22/6 1/23/6 20/24/6
f 23/12/7 5/11/7 12/22/7 24/21/7
f 13/25/8 17/13/8 11/16/8 8/26/8
f 22/20/9 3/19/9 10/6/9 25/5/9
f 14/18/10 18/1/10 10/4/10 3/19/10
f 1/23/11 12/27/11 18/1/11 14/18/11
f 6/28/12 9/29/12 17/13/12 13/25/12
f 20/24/13 1/23/13 14/18/13 26/17/13
f 9/29/14 2/30/14 16/14/14 17/13/14
f 21/31/15 7/32/15 15/10/15 27/9/15
f 12/27/16 5/33/16 15/2/16 18/1/16
f 8/34/17 21/31/17 27/9/17 13/35/17
f 2/30/18 20/24/18 26/17/18 16/14/18
f 4/15/19 22/20/19 25/5/19 11/36/19
f 6/37/20 23/12/20 24/21/20 9/38/20
f 9/38/21 24/21/21 20/24/21 2/30/21
f 16/14/22 26/17/22 22/20/22 4/15/22
f 13/35/23 27/9/23 23/12/23 6/37/23
f 11/36/24 25/5/24 21/8/24 8/39/24
